<svg width="7" height="11" viewBox="0 0 7 11" fill="none" xmlns="http://www.w3.org/2000/svg">
<path fill-rule="evenodd" clip-rule="evenodd" d="M3.57868 5.94943C2.65534 5.94943 1.90839 5.21052 1.90839 4.29894C1.90839 3.38784 2.65534 2.6483 3.57868 2.6483C4.50169 2.6483 5.2493 3.38784 5.2493 4.29894C5.2493 5.21052 4.50169 5.94943 3.57868 5.94943M3.48394 0.761902C1.54227 0.761902 0 2.37919 0 4.37407C0 7.09353 2.95078 9.90367 2.95078 9.90367C3.34777 10.2751 3.59437 10.3054 4.01646 9.90367C4.01646 9.90367 7 7.09353 7 4.37407C7 2.37919 5.42544 0.761902 3.48394 0.761902" fill="#F55A5A"/>
</svg>
